# xmcd
#
# Track frame offsets: 
#        182
#        13335
#        25665
#        39445
#        53277
#        63625
#        75795
#        86315
#        97460
#        108730
#        120222
#        133072
#        145935
#        158110
#        168645
#        178907
#        200670
#        211672
#
# Disc length: 2979 seconds
#
# Revision: 11
# Processed by: cddbd v1.5.2PL0 Copyright (c) Steve Scherf et al.
# Submitted via: ExactAudioCopyFreeDBPlugin 1.0
#
DISCID=f00ba112
DTITLE=Elmore James - Dust my Broom - The Blues Collection 17)
DYEAR=1995
DGENRE=Blues
TTITLE0=Dust My Broom
TTITLE1=Cry For Me Baby
TTITLE2=The Twelve Year Old Boy
TTITLE3=It Hurts Me Too
TTITLE4=Elmore's Contribution To Jazz
TTITLE5=The Sky Is Crying
TTITLE6=Take Me Where You Go
TTITLE7=Rollin' And Tumblin
TTITLE8=Shake Your Moneymaker
TTITLE9=Fine Little Mama
TTITLE10=Held My Baby Last Night
TTITLE11=Baby Please Set A Date
TTITLE12=Got To Move
TTITLE13=One Way Out
TTITLE14=Can't Stop Loving My Baby
TTITLE15=Something Inside Of Me
TTITLE16=Person To Person
TTITLE17=Talk To Me Baby
EXTD=
EXTT0=
EXTT1=
EXTT2=
EXTT3=
EXTT4=
EXTT5=
EXTT6=
EXTT7=
EXTT8=
EXTT9=
EXTT10=
EXTT11=
EXTT12=
EXTT13=
EXTT14=
EXTT15=
EXTT16=
EXTT17=
PLAYORDER=
